<svg width="16" height="10" viewBox="0 0 16 10" fill="none" xmlns="http://www.w3.org/2000/svg">
<path d="M1.45455 0C0.650909 0 0 0.650909 0 1.45455V8C0 8.80364 0.650909 9.45455 1.45455 9.45455H14.5455C15.3491 9.45455 16 8.80364 16 8V1.45455C16 0.650909 15.3491 0 14.5455 0H1.45455ZM1.45455 1.45455H14.5455V8H1.45455V1.45455ZM2.90909 2.90909V4.36364H4.36364V2.90909H2.90909ZM5.09091 2.90909V4.36364H6.54545V2.90909H5.09091ZM7.27273 2.90909V4.36364H8.72727V2.90909H7.27273ZM9.45455 2.90909V4.36364H10.9091V2.90909H9.45455ZM11.6364 2.90909V4.36364H13.0909V2.90909H11.6364ZM2.90909 5.09091V6.54545H4.36364V5.09091H2.90909ZM5.09091 5.09091V6.54545H10.9091V5.09091H5.09091ZM11.6364 5.09091V6.54545H13.0909V5.09091H11.6364Z" fill="white"/>
</svg>
