<svg width="20" height="21" viewBox="0 0 20 21" fill="none" xmlns="http://www.w3.org/2000/svg">
<path d="M7.6252 0L7.12639 2.56757C6.28781 2.88382 5.51775 3.32712 4.84301 3.88116L2.37679 3.0306L0 7.14428L1.97536 8.86129C1.89942 9.32753 1.8601 9.75959 1.8601 10.1749C1.8601 10.5908 1.9006 11.0221 1.97536 11.4885V11.4905L0 13.2075L2.37679 17.3192L4.84102 16.4706C5.51582 17.0249 6.28763 17.4658 7.12639 17.7822L7.6252 20.3498H12.3748L12.8736 17.7822C13.7127 17.4657 14.4819 17.0232 15.157 16.4686L17.6232 17.3192L19.998 13.2075L18.0246 11.4885C18.1006 11.0222 18.1399 10.5902 18.1399 10.1749C18.1399 9.76021 18.1004 9.32871 18.0246 8.86328V8.86129L20 7.14229L17.6232 3.0306L15.159 3.87917C14.4842 3.32483 13.7124 2.884 12.8736 2.56757L12.3748 0H7.6252ZM9.30246 2.03498H10.6975L11.093 4.06995L12.1542 4.47138C12.7939 4.71247 13.3686 5.04344 13.8673 5.4531L14.7456 6.1725L16.7011 5.5008L17.3986 6.70708L15.8366 8.06638L16.0155 9.18521V9.1872C16.0777 9.5687 16.1049 9.88873 16.1049 10.1749C16.1049 10.461 16.0777 10.781 16.0155 11.1626L15.8347 12.2814L17.3967 13.6407L16.6991 14.849L14.7456 14.1753L13.8653 14.8967C13.3666 15.3063 12.7939 15.6373 12.1542 15.8784H12.1522L11.091 16.2798L10.6955 18.3148H9.30246L8.907 16.2798L7.84579 15.8784C7.20613 15.6373 6.63143 15.3063 6.13275 14.8967L5.25437 14.1773L3.29889 14.849L2.60135 13.6427L4.16534 12.2814L3.9845 11.1665V11.1645C3.92317 10.7814 3.89507 10.4605 3.89507 10.1749C3.89507 9.88873 3.92228 9.56874 3.9845 9.1872L4.16534 8.06836L2.60135 6.70906L3.29889 5.5008L5.25437 6.17448L6.13275 5.4531C6.63143 5.04344 7.20613 4.71247 7.84579 4.47138L8.907 4.06995L9.30246 2.03498ZM10 6.10493C7.76506 6.10493 5.93005 7.93994 5.93005 10.1749C5.93005 12.4098 7.76506 14.2448 10 14.2448C12.2349 14.2448 14.07 12.4098 14.07 10.1749C14.07 7.93994 12.2349 6.10493 10 6.10493ZM10 8.1399C11.1309 8.1399 12.035 9.04397 12.035 10.1749C12.035 11.3058 11.1309 12.2099 10 12.2099C8.86909 12.2099 7.96502 11.3058 7.96502 10.1749C7.96502 9.04397 8.86909 8.1399 10 8.1399Z" fill="white"/>
</svg>
