<svg width="15" height="21" viewBox="0 0 15 21" fill="none" xmlns="http://www.w3.org/2000/svg">
<path d="M14.5919 7.30211C14.5554 3.29846 11.3087 0.0700073 7.29594 0.0700073C3.28317 0.0700073 0.0364797 3.29846 0 7.30211V12.7741C0 16.8051 3.26493 20.07 7.29594 20.07C11.3269 20.07 14.5919 16.8051 14.5919 12.7741V7.30211ZM12.7679 7.30211H8.20793V1.97607C10.7706 2.40471 12.7314 4.62085 12.7679 7.30211ZM6.38395 1.97607V7.30211H1.82399C1.86047 4.62085 3.82125 2.40471 6.38395 1.97607ZM12.7679 12.7741C12.7679 15.7928 10.3146 18.246 7.29594 18.246C4.27725 18.246 1.82399 15.7928 1.82399 12.7741V9.12609H12.7679V12.7741Z" fill="white"/>
</svg>
