<svg width="20" height="15" viewBox="0 0 20 15" fill="none" xmlns="http://www.w3.org/2000/svg">
<path d="M10 0C2.72727 0 0 7.27273 0 7.27273C0 7.27273 2.72727 14.5455 10 14.5455C17.2727 14.5455 20 7.27273 20 7.27273C20 7.27273 17.2727 0 10 0ZM10 1.81818C14.7964 1.81818 17.2224 5.69736 18.0078 7.26918C17.2214 8.83009 14.7773 12.7273 10 12.7273C5.20364 12.7273 2.77764 8.8481 1.99219 7.27628C2.77946 5.71537 5.22273 1.81818 10 1.81818ZM10 3.63636C7.99182 3.63636 6.36364 5.26455 6.36364 7.27273C6.36364 9.28091 7.99182 10.9091 10 10.9091C12.0082 10.9091 13.6364 9.28091 13.6364 7.27273C13.6364 5.26455 12.0082 3.63636 10 3.63636ZM10 5.45455C11.0045 5.45455 11.8182 6.26818 11.8182 7.27273C11.8182 8.27727 11.0045 9.09091 10 9.09091C8.99545 9.09091 8.18182 8.27727 8.18182 7.27273C8.18182 6.26818 8.99545 5.45455 10 5.45455Z" fill="white"/>
</svg>
