<svg width="20" height="20" viewBox="0 0 20 20" fill="none" xmlns="http://www.w3.org/2000/svg">
<path d="M9.09091 0V1.87145C5.27793 2.28624 2.28624 5.27793 1.87145 9.09091H0V10.9091H1.87145C2.28624 14.7221 5.27793 17.7138 9.09091 18.1286V20H10.9091V18.1286C14.7221 17.7138 17.7138 14.7221 18.1286 10.9091H20V9.09091H18.1286C17.7138 5.27793 14.7221 2.28624 10.9091 1.87145V0H9.09091ZM10 3.63636C13.5455 3.63636 16.3636 6.45455 16.3636 10C16.3636 13.5455 13.5455 16.3636 10 16.3636C6.45455 16.3636 3.63636 13.5455 3.63636 10C3.63636 6.45455 6.45455 3.63636 10 3.63636ZM10 7.27273C9.27668 7.27273 8.58299 7.56006 8.07153 8.07153C7.56006 8.58299 7.27273 9.27668 7.27273 10C7.27273 10.7233 7.56006 11.417 8.07153 11.9285C8.58299 12.4399 9.27668 12.7273 10 12.7273C10.7233 12.7273 11.417 12.4399 11.9285 11.9285C12.4399 11.417 12.7273 10.7233 12.7273 10C12.7273 9.27668 12.4399 8.58299 11.9285 8.07153C11.417 7.56006 10.7233 7.27273 10 7.27273Z" fill="white"/>
</svg>
