<svg width="24" height="23" viewBox="0 0 24 23" fill="none" xmlns="http://www.w3.org/2000/svg">
<path d="M4.18738 1.47855C4.18738 1.47855 8.18864 0.273583 12.0208 2.20542C15.853 4.13725 17.3154 7.06893 17.3154 7.06893L17.5645 6.90212L18.0031 7.66192C18.0031 7.66192 17.3931 8.95813 17.8969 9.91055C18.4007 10.863 19.4498 11.5236 19.4498 11.5236C19.4498 11.5236 20.0801 13.0938 20.2521 15.0666C20.4241 17.0395 20.1199 19.2643 20.1199 19.2643C20.1199 19.2643 20.0377 19.6801 19.9394 19.829C19.8412 19.9778 18.8649 20.6796 18.663 20.8882C18.5103 21.0225 18.0574 21.5142 17.8137 21.77C17.73 21.8644 17.5865 21.8551 17.4995 21.7442L17.2855 21.4533C17.2855 21.4533 16.1707 21.0378 15.962 20.836C15.7534 20.6341 15.3886 20.3612 15.324 19.7308C15.2248 19.1204 15.4359 18.7682 15.5634 18.5104C15.7254 18.2327 16.3709 17.6758 16.3709 17.6758C16.3709 17.6758 16.9108 17.295 16.9459 16.8373C16.959 16.4613 16.6162 16.1067 16.4347 15.9122C16.3603 15.863 16.3623 15.7468 16.4387 15.6797C16.6332 15.4982 16.8862 15.0989 16.7491 14.3032C16.5741 13.3221 16.1582 13.2398 16.042 13.2379C16.042 13.2379 16.0147 13.2306 16.022 13.2033C16.1203 13.0545 16.7172 12.1343 16.2493 11.4834C15.7416 10.7635 15.1822 10.672 15.1822 10.672L14.0178 10.7687C13.9288 10.7741 13.847 10.7522 13.7726 10.703L13.7254 10.6612C13.651 10.6121 13.5839 10.5357 13.5513 10.4394L13.3558 9.86152C13.3558 9.86152 13.6333 7.19168 10.9987 4.82169C8.36404 2.45171 4.18738 1.47855 4.18738 1.47855Z" stroke="white" stroke-width="1.5" stroke-miterlimit="10"/>
<path d="M17.1185 20.561C17.9516 20.7597 18.7442 20.4296 18.8888 19.8237C19.0333 19.2178 18.4751 18.5654 17.6419 18.3667C16.8088 18.1679 16.0162 18.498 15.8716 19.104C15.7271 19.7099 16.2853 20.3622 17.1185 20.561Z" stroke="white" stroke-miterlimit="10"/>
<path d="M17.528 7.03832C17.528 7.03832 16.7151 7.7839 16.3577 7.48376C16.0002 7.18362 15.8533 6.9691 15.8533 6.9691L15.2754 7.16459C15.2754 7.16459 15.6246 8.36749 15.0262 8.9662C14.4279 9.56491 13.3865 10.0741 13.3865 10.0741" stroke="white" stroke-width="1.5" stroke-miterlimit="10"/>
</svg>
