<svg width="17" height="16" viewBox="0 0 17 16" fill="none" xmlns="http://www.w3.org/2000/svg">
<path d="M8.42105 4.32L9.2379 6.24842L9.63368 7.18316L10.6442 7.26737L12.7242 7.44421L11.1411 8.81684L10.3747 9.48211L10.6021 10.4758L11.0737 12.5053L9.28842 11.4274L8.42105 10.8884L7.55368 11.4105L5.76842 12.4884L6.24 10.4589L6.46737 9.46526L5.70105 8.8L4.11789 7.42737L6.19789 7.25053L7.20842 7.16632L7.60421 6.23158L8.42105 4.32V4.32ZM8.42105 0L6.05474 5.58316L0 6.09684L4.59789 10.08L3.21684 16L8.42105 12.8589L13.6253 16L12.2442 10.08L16.8421 6.09684L10.7874 5.58316L8.42105 0Z" fill="white"/>
</svg>
